<?xml version="1.0" encoding="utf-8"?>
<!-- Generator: Adobe Illustrator 27.5.0, SVG Export Plug-In . SVG Version: 6.00 Build 0)  -->
<svg version="1.1" id="Layer_1" xmlns="http://www.w3.org/2000/svg" xmlns:xlink="http://www.w3.org/1999/xlink" x="0px" y="0px"
	 viewBox="0 0 504 288" style="enable-background:new 0 0 504 288;" xml:space="preserve">
<g>
	<g>
		<defs>
			<rect id="SVGID_316_" width="504" height="288"/>
		</defs>
		<use xlink:href="#SVGID_316_"  style="overflow:visible;fill:#00150A;"/>
		<clipPath id="SVGID_00000155829866349499071850000009778309083050063031_">
			<use xlink:href="#SVGID_316_"  style="overflow:visible;"/>
		</clipPath>
		<g style="clip-path:url(#SVGID_00000155829866349499071850000009778309083050063031_);">
			<path style="fill:#DBDBDB;" d="M188.921,100.709h-88.063L56.826,24.445l44.031-76.265h88.063l44.031,76.265L188.921,100.709z
				 M106.631,90.709h76.517l38.258-66.265L183.147-41.82h-76.517L68.373,24.445L106.631,90.709z"/>
		</g>
		<g style="clip-path:url(#SVGID_00000155829866349499071850000009778309083050063031_);">
			<path style="fill:#DBDBDB;" d="M443.184,323.488h-71.258l-0.144-0.25l-35.484-61.46l35.628-61.71h71.258l0.144,0.25l35.484,61.46
				L443.184,323.488z M372.505,322.488h70.102l35.052-60.71l-35.052-60.71h-70.102l-35.052,60.71L372.505,322.488z"/>
		</g>
		<g style="opacity:0.3;clip-path:url(#SVGID_00000155829866349499071850000009778309083050063031_);">
			<g>
				<path style="fill:#DBDBDB;" d="M520.766,104.868h-98.42c-0.186,0-0.359-0.099-0.453-0.261l-49.211-85.235
					c-0.092-0.162-0.092-0.36,0-0.522l49.211-85.235c0.094-0.162,0.267-0.261,0.453-0.261h98.42c0.186,0,0.359,0.099,0.453,0.261
					l49.211,85.235c0.092,0.162,0.092,0.36,0,0.522l-49.211,85.235C521.125,104.769,520.952,104.868,520.766,104.868z
					 M422.647,103.824h97.816l48.91-84.713l-48.91-84.713h-97.816l-48.91,84.713L422.647,103.824z"/>
			</g>
			<g id="Offset_Group_18_">
				<g>
					<path style="fill:#DBDBDB;" d="M525.396,112.889H417.714c-0.186,0-0.359-0.099-0.453-0.261L363.42,19.372
						c-0.092-0.162-0.092-0.36,0-0.522l53.841-93.256c0.094-0.162,0.266-0.261,0.453-0.261h107.682c0.186,0,0.359,0.099,0.453,0.261
						l53.842,93.256c0.093,0.162,0.093,0.36,0,0.522l-53.842,93.255C525.755,112.79,525.582,112.889,525.396,112.889z
						 M418.016,111.845h107.078l53.542-92.733l-53.542-92.734H418.016l-53.54,92.734L418.016,111.845z"/>
				</g>
				<g>
					<path style="fill:#DBDBDB;" d="M516.135,96.847h-89.159c-0.186,0-0.359-0.099-0.453-0.261l-44.58-77.214
						c-0.092-0.162-0.092-0.36,0-0.522l44.58-77.214c0.094-0.162,0.267-0.261,0.453-0.261h89.159c0.186,0,0.359,0.099,0.453,0.261
						l44.579,77.214c0.092,0.162,0.092,0.36,0,0.522l-44.579,77.214C516.494,96.748,516.322,96.847,516.135,96.847z M427.278,95.803
						h88.556l44.279-76.691l-44.279-76.692h-88.556l-44.28,76.692L427.278,95.803z"/>
				</g>
			</g>
		</g>
		<g style="opacity:0.3;clip-path:url(#SVGID_00000155829866349499071850000009778309083050063031_);">
			<g>
				<path style="fill:#DBDBDB;" d="M52.501,345.541H-8.945c-0.116,0-0.224-0.062-0.283-0.163l-30.724-53.214
					c-0.058-0.101-0.058-0.225,0-0.326l30.724-53.214c0.059-0.101,0.166-0.163,0.283-0.163h61.446c0.116,0,0.224,0.062,0.283,0.163
					l30.724,53.214c0.058,0.101,0.058,0.225,0,0.326l-30.724,53.214C52.725,345.479,52.617,345.541,52.501,345.541z M-8.757,344.889
					h61.069L82.849,292l-30.536-52.889H-8.757L-39.293,292L-8.757,344.889z"/>
			</g>
			<g id="Offset_Group_17_">
				<g>
					<path style="fill:#DBDBDB;" d="M55.392,350.548h-67.229c-0.116,0-0.224-0.062-0.283-0.163l-33.614-58.222
						c-0.058-0.101-0.058-0.225,0-0.326l33.614-58.222c0.059-0.101,0.166-0.163,0.283-0.163h67.229c0.116,0,0.224,0.062,0.283,0.163
						l33.615,58.222c0.058,0.101,0.058,0.225,0,0.326l-33.615,58.222C55.616,350.486,55.508,350.548,55.392,350.548z
						 M-11.649,349.896h66.852L88.631,292l-33.428-57.896h-66.852L-45.075,292L-11.649,349.896z"/>
				</g>
				<g>
					<path style="fill:#DBDBDB;" d="M49.61,340.533H-6.055c-0.116,0-0.224-0.062-0.283-0.163l-27.833-48.207
						c-0.058-0.101-0.058-0.225,0-0.326l27.833-48.207c0.059-0.101,0.166-0.163,0.283-0.163H49.61c0.116,0,0.224,0.062,0.283,0.163
						l27.832,48.207c0.058,0.101,0.058,0.225,0,0.326L49.893,340.37C49.834,340.471,49.727,340.533,49.61,340.533z M-5.866,339.881
						h55.288L77.066,292l-27.644-47.881H-5.866L-33.511,292L-5.866,339.881z"/>
				</g>
			</g>
		</g>
		<g style="clip-path:url(#SVGID_00000155829866349499071850000009778309083050063031_);">
			<path style="fill:#FFFFFF;" d="M-16.127,100.332c-0.638-8.792,6.505-16.266,13.868-19.772c5.184-2.469,10.884-3.684,16.398-4.859
				c2.579-0.55,5.246-1.119,7.82-1.808c10.008-2.679,16.697-7.166,19.882-13.338c4.538-8.793,1.192-19.382-2.413-26.716
				c-1.262-2.564-2.691-5.122-4.074-7.595c-3.184-5.696-6.478-11.586-7.988-18.05c-2.131-9.123,0.504-20.961,9.585-24.929l0.4,0.916
				C28.764-12.067,26.3-0.764,28.34,7.967c1.477,6.326,4.735,12.154,7.887,17.789c1.39,2.484,2.825,5.054,4.098,7.642
				c3.708,7.541,7.134,18.453,2.405,27.617c-3.319,6.432-10.221,11.09-20.513,13.845c-2.598,0.696-5.278,1.267-7.87,1.82
				C8.89,77.842,3.249,79.044-1.829,81.462c-7.056,3.36-13.904,10.476-13.3,18.797L-16.127,100.332z"/>
		</g>
		<g style="clip-path:url(#SVGID_00000155829866349499071850000009778309083050063031_);">
			<path style="fill:#FFFFFF;" d="M513.558,242.377c-4.678,0.001-9.485-1.369-13.82-4.012c-6.336-3.864-10.713-9.874-12.008-16.487
				c-0.792-4.04-0.621-8.318-0.456-12.456c0.263-6.583,0.511-12.8-2.809-18.043c-2.579-4.075-7.006-6.82-11.287-9.474
				c-5.409-3.355-11.003-6.823-12.661-12.984c-2.161-8.024,3.962-16.008,11.128-19.746c4.52-2.358,9.537-3.594,14.391-4.789
				c2.782-0.685,5.66-1.394,8.403-2.305c4.301-1.429,14.523-5.744,16.55-14.92l0.977,0.216c-2.138,9.677-12.748,14.17-17.212,15.654
				c-2.78,0.924-5.677,1.637-8.478,2.327c-4.796,1.181-9.755,2.402-14.167,4.705c-6.813,3.554-12.649,11.083-10.626,18.6
				c1.556,5.779,6.737,8.992,12.224,12.394c4.377,2.714,8.902,5.52,11.605,9.789c3.485,5.506,3.22,12.171,2.962,18.618
				c-0.162,4.08-0.331,8.299,0.438,12.224c1.242,6.339,5.451,12.107,11.548,15.826c6.095,3.717,13.148,4.821,19.355,3.022
				l0.277,0.961C517.848,242.085,515.717,242.377,513.558,242.377z"/>
		</g>
		<g style="clip-path:url(#SVGID_00000155829866349499071850000009778309083050063031_);">
			<g>
				<g>
					<g>
						<path style="fill:#FFFFFF;" d="M128.091,43.52c-0.128,0-0.256-0.049-0.354-0.146l-8.593-8.593
							c-0.195-0.195-0.195-0.512,0-0.707c0.195-0.195,0.512-0.195,0.707,0l8.593,8.593c0.195,0.195,0.195,0.512,0,0.707
							C128.347,43.471,128.219,43.52,128.091,43.52z"/>
					</g>
					<g>
						<path style="fill:#FFFFFF;" d="M119.498,43.52c-0.128,0-0.256-0.049-0.354-0.146c-0.195-0.195-0.195-0.512,0-0.707
							l8.593-8.593c0.195-0.195,0.512-0.195,0.707,0c0.195,0.195,0.195,0.512,0,0.707l-8.593,8.593
							C119.754,43.471,119.626,43.52,119.498,43.52z"/>
					</g>
				</g>
			</g>
			<g>
				<g>
					<g>
						<path style="fill:#FFFFFF;" d="M381.367,168.766c-0.128,0-0.256-0.049-0.354-0.146l-8.593-8.593
							c-0.195-0.195-0.195-0.512,0-0.707c0.195-0.195,0.512-0.195,0.707,0l8.593,8.593c0.195,0.195,0.195,0.512,0,0.707
							C381.623,168.717,381.495,168.766,381.367,168.766z"/>
					</g>
					<g>
						<path style="fill:#FFFFFF;" d="M372.775,168.766c-0.128,0-0.256-0.049-0.354-0.146c-0.195-0.195-0.195-0.512,0-0.707
							l8.593-8.593c0.195-0.195,0.512-0.195,0.707,0c0.195,0.195,0.195,0.512,0,0.707l-8.593,8.593
							C373.03,168.717,372.902,168.766,372.775,168.766z"/>
					</g>
				</g>
			</g>
		</g>
		<g style="clip-path:url(#SVGID_00000155829866349499071850000009778309083050063031_);">
			<g>
				<g>
					<g>
						<path style="fill:#FFFFFF;" d="M78.667,167.222c-2.573,0-4.666-2.093-4.666-4.666c0-2.573,2.093-4.667,4.666-4.667
							c2.573,0,4.667,2.094,4.667,4.667C83.334,165.13,81.24,167.222,78.667,167.222z M78.667,158.889
							c-2.021,0-3.666,1.645-3.666,3.667c0,2.021,1.645,3.666,3.666,3.666c2.022,0,3.667-1.645,3.667-3.666
							C82.334,160.534,80.689,158.889,78.667,158.889z"/>
					</g>
				</g>
			</g>
			<g>
				<g>
					<g>
						<path style="fill:#FFFFFF;" d="M351.383,44.779c-2.573,0-4.667-2.094-4.667-4.667c0-2.573,2.094-4.667,4.667-4.667
							c2.573,0,4.666,2.094,4.666,4.667C356.049,42.685,353.957,44.779,351.383,44.779z M351.383,36.445
							c-2.022,0-3.667,1.645-3.667,3.667c0,2.022,1.645,3.667,3.667,3.667c2.022,0,3.666-1.645,3.666-3.667
							C355.049,38.09,353.405,36.445,351.383,36.445z"/>
					</g>
				</g>
			</g>
		</g>
		<g style="clip-path:url(#SVGID_00000155829866349499071850000009778309083050063031_);">
			<path style="fill:#FFFFFF;" d="M282.025,264.72c0-0.83,0.67-1.5,1.5-1.5l0,0c0.83,0,1.5,0.67,1.5,1.5l0,0
				c0,0.83-0.67,1.5-1.5,1.5l0,0C282.695,266.22,282.025,265.55,282.025,264.72z M270.025,264.72c0-0.83,0.67-1.5,1.5-1.5l0,0
				c0.83,0,1.5,0.67,1.5,1.5l0,0c0,0.83-0.67,1.5-1.5,1.5l0,0C270.695,266.22,270.025,265.55,270.025,264.72z M258.025,264.72
				c0-0.83,0.67-1.5,1.5-1.5l0,0c0.83,0,1.5,0.67,1.5,1.5l0,0c0,0.83-0.67,1.5-1.5,1.5l0,0
				C258.695,266.22,258.025,265.55,258.025,264.72z M246.025,264.72c0-0.83,0.67-1.5,1.5-1.5l0,0c0.83,0,1.5,0.67,1.5,1.5l0,0
				c0,0.83-0.67,1.5-1.5,1.5l0,0C246.695,266.22,246.025,265.55,246.025,264.72z"/>
		</g>
		<g style="clip-path:url(#SVGID_00000155829866349499071850000009778309083050063031_);">
			<path style="fill:#FFFFFF;" d="M466.427,40c0-0.511,0.412-0.923,0.923-0.923l0,0c0.511,0,0.923,0.412,0.923,0.923l0,0
				c0,0.511-0.412,0.923-0.923,0.923l0,0C466.84,40.923,466.427,40.511,466.427,40z M459.043,40c0-0.511,0.412-0.923,0.923-0.923
				l0,0c0.511,0,0.923,0.412,0.923,0.923l0,0c0,0.511-0.412,0.923-0.923,0.923l0,0C459.455,40.923,459.043,40.511,459.043,40z
				 M451.658,40c0-0.511,0.412-0.923,0.923-0.923l0,0c0.511,0,0.923,0.412,0.923,0.923l0,0c0,0.511-0.412,0.923-0.923,0.923l0,0
				C452.07,40.923,451.658,40.511,451.658,40z M444.273,40c0-0.511,0.412-0.923,0.923-0.923l0,0c0.511,0,0.923,0.412,0.923,0.923
				l0,0c0,0.511-0.412,0.923-0.923,0.923l0,0C444.686,40.923,444.273,40.511,444.273,40z"/>
		</g>
		<g style="clip-path:url(#SVGID_00000155829866349499071850000009778309083050063031_);">
			<path style="fill:#FFFFFF;" d="M76.869,219.667c-1.831,0-3.663-1.44-5.3-4.164c-1.471-2.453-3.125-3.803-4.659-3.803
				c-1.535,0-3.189,1.35-4.659,3.802c-1.635,2.725-3.468,4.165-5.3,4.165c-1.832,0-3.664-1.44-5.299-4.165
				c-1.472-2.452-3.127-3.802-4.66-3.802s-3.188,1.351-4.659,3.803c-1.635,2.724-3.467,4.164-5.299,4.164
				c-1.832,0-3.665-1.44-5.3-4.165c-1.471-2.452-3.125-3.802-4.66-3.802c-1.534,0-3.188,1.35-4.659,3.802
				c-0.106,0.178-0.337,0.235-0.512,0.128c-0.177-0.106-0.235-0.336-0.128-0.512c1.634-2.725,3.466-4.166,5.299-4.166
				c1.834,0,3.666,1.441,5.3,4.166c1.471,2.452,3.125,3.802,4.659,3.802c1.533,0,3.188-1.35,4.659-3.802
				c1.636-2.725,3.468-4.166,5.3-4.166c1.832,0,3.664,1.441,5.3,4.165c1.471,2.452,3.125,3.802,4.659,3.802
				c1.534,0,3.188-1.35,4.659-3.802c1.634-2.725,3.466-4.166,5.3-4.166c1.833,0,3.665,1.441,5.299,4.166
				c1.473,2.452,3.128,3.802,4.66,3.802c1.532,0,3.187-1.35,4.659-3.802c0.106-0.177,0.337-0.232,0.513-0.128
				c0.176,0.106,0.234,0.335,0.128,0.513C80.533,218.227,78.7,219.667,76.869,219.667z"/>
		</g>
	</g>
</g>
</svg>
